<?xml version="1.0" encoding="iso-8859-1"?>
<!-- Generator: Adobe Illustrator 16.0.0, SVG Export Plug-In . SVG Version: 6.00 Build 0)  -->
<!DOCTYPE svg PUBLIC "-//W3C//DTD SVG 1.1//EN" "http://www.w3.org/Graphics/SVG/1.1/DTD/svg11.dtd">
<svg version="1.1" id="Layer_1" xmlns="http://www.w3.org/2000/svg" xmlns:xlink="http://www.w3.org/1999/xlink" x="0px" y="0px"
	 width="1629px" height="1729px" viewBox="0 0 1629 1729" style="enable-background:new 0 0 1629 1729;" xml:space="preserve">
<g>
	<g>
		<path style="fill:#FEFEFE;" d="M1700.957-198.875"/>
		<path style="fill:#336533;" d="M1215.426,1713.343c0.502,1.121,1.004,2.246,1.506,3.367c0.512,1.291,0.564,2.342-1.252,2.432
			c-9.063-9.088-17.676-18.686-27.293-27.146c-14.971-13.174-28.582-27.693-42.857-41.553
			c-17.736-17.223-35.354-34.574-53.023-51.869c-17.799-17.428-35.596-34.861-53.402-52.283
			c-16.609-16.25-33.361-32.354-49.811-48.762c-30.332-30.256-60.705-60.475-90.588-91.172c-9.139-9.383-18.244-18.766-27.82-27.699
			c-1.133-5.191-4.074-9.561-6.443-14.195c-18.664-36.527-36.443-73.496-54.484-110.33c-14.761-30.131-29.397-60.324-44.145-90.465
			c-17.94-36.666-35.461-73.537-53.408-110.201c-12.784-26.117-25.408-52.314-38.109-78.473
			c-19.373-39.91-38.761-79.813-58.18-119.696c-12.403-25.475-24.724-50.988-37.123-76.465
			c-11.992-24.636-23.63-49.445-35.936-73.932c-3.521-7.011-3.704-7.017-11.161-4.61c-7.429,2.401-14.442,6.095-22.297,7.177
			c-0.866-0.116-1.684-0.389-2.486-0.715c-0.894-0.323-1.793-0.378-2.72-0.144c-17.368,4.375-34.875,8.181-52.225,12.627
			c-43.643,10.654-87.368,20.961-131.053,31.439c-38.458,9.224-76.952,18.295-115.404,27.545c-5.987,1.439-12.005,2.73-18.004,4.111
			c-1.408,0.326-3.169,0.795-4.081-0.775c-0.699-1.205,0.136-2.559,0.831-3.637c6.165-9.564,12.36-19.111,18.975-28.374
			c2.235-3.13,5.74-3.959,9.215-4.792c27.578-6.6,55.147-13.231,82.736-19.779c35.395-8.4,70.788-16.802,106.166-25.27
			c39.677-9.497,79.378-18.894,119.107-28.17c-68.561,15.829-137.378,30.514-206.068,45.754
			c-41.525,9.214-83.123,18.086-124.649,27.297c-2.885,0.641-6.758,2.962-8.716-0.302c-1.693-2.823,1.785-5.318,3.504-7.599
			c19.854-26.365,39.438-52.948,61.32-77.709c2.671-3.103,6.298-5.401,7.938-9.381c6.114-7.2,13.232-12.769,21.922-16.974
			c30.825-14.92,61.114-30.958,92.057-45.623c16.852-7.986,34.589-14.114,51.965-20.982c29.564-11.684,59.163-23.28,88.74-34.936
			c33.862-13.346,67.703-26.738,101.572-40.066c16.488-6.489,33.132-12.594,49.47-19.44c7.586-3.18,13.079-9.725,19.506-14.752
			c12.054-9.427,23.777-19.278,35.673-28.898c11.023-8.913,21.824-18.139,32.802-27.131c11.7-9.584,23.567-18.963,35.269-28.544
			c10.974-8.985,21.807-18.14,32.732-27.185c17.178-14.222,34.303-28.473,52.732-41.139c32.113-22.067,63.852-44.681,95.785-67.012
			c22.514-15.743,44.916-31.654,67.684-47.021c21.402-14.443,45.484-23.965,68.289-35.829
			c25.559-13.297,51.537-25.781,77.277-38.723c25.775-12.958,51.27-26.494,77.271-38.968c37.564-18.019,75.479-35.319,113.25-52.904
			c8.293-3.86,16.756-7.38,24.891-11.545c4.158-2.131,8.236-1.439,11.658,0.128c3.281,1.505,0.924,5.627,1.271,8.571
			c-30.785,25.666-61.205,51.766-91.859,77.585c-24.955,21.017-49.92,42.019-74.813,63.107
			c-28.021,23.736-56.025,47.496-84.094,71.178c-22.797,19.234-45.592,38.471-68.373,57.721
			c-34.035,28.759-68.063,57.523-102.205,86.151c-32.434,27.195-64.537,54.81-97.715,81.078
			c-21.553,17.063-39.48,37.321-56.912,58.256c-16.94,20.339-34.524,40.129-51.706,60.264
			c-19.239,22.545-38.566,45.018-57.845,67.53c-16.125,18.831-32.128,37.771-48.322,56.544c-4.726,5.478-4.907,6.495-0.831,12.636
			c30.957,46.634,59.586,94.729,89.317,142.13c32.708,52.146,65.071,104.503,97.593,156.767
			c30.254,48.617,60.5,97.238,90.748,145.865c25.711,41.334,51.623,82.551,77.459,123.811
			c25.439,40.631,51.41,80.928,76.215,121.951c1.936,3.201,4.131,6.225,6.305,9.242c7.398,10.27,11.842,21.791,15.863,33.709
			c14.369,42.596,28.803,85.166,43.703,127.584c15.268,43.453,30.129,87.064,44.039,130.98
			C1213.732,1707.462,1213.223,1710.882,1215.426,1713.343z"/>
		<path style="fill:#DF2000;" d="M1173,1271.423c7.58,6.432,16.922,7.457,26.242,8.68c16.117,2.117,32.211,4.428,48.332,6.545
			c15.211,1.996,30.451,3.754,45.658,5.787c18.305,2.441,36.533,5.596,54.896,7.426c13.539,1.35,26.482,4.207,38.951,9.514
			c4.477,1.906,7.73,3.453,9.621,9.49c1.914,6.105,0.238,9.336-2.367,13.703c-3.121,5.227-8.818,4.992-13.43,6.545
			c-16.805,5.654-33.836,10.633-50.764,15.92c-31.01,9.688-62.01,19.412-93.012,29.123c-30.992,9.701-61.986,19.402-92.973,29.127
			c-0.859,0.27-1.643,0.785-2.463,1.188c-2.668,1.246-4.424,0.871-4.492-2.52c1.623-2.031,4.057-2.561,6.338-3.318
			c64.068-21.342,128.418-41.826,192.551-62.961c15.414-5.078,30.824-10.168,46.264-15.164c3.047-0.986,6.223-1.887,6.172-6.09
			c-0.045-3.959-2.516-5.762-5.756-7.406c-12.98-6.598-27.242-7.496-41.242-9.393c-31.787-4.305-63.568-8.66-95.352-12.986
			c-17.924-2.441-35.922-4.457-53.742-7.531c-10.652-1.84-21.154-4.799-28.688-13.639c-3.637-4.271-4.264-16.236-0.941-20.576
			c1.797-2.352,4.564-2.348,7.092-2.779c28.135-4.789,56.346-9.125,84.52-13.684c29.459-4.766,58.924-9.516,88.396-14.197
			c20.08-3.191,40.15-6.451,60.219-9.711c1.998-0.324,4.07-0.383,6.736-1.74c-7.297-1.502-14.006-2.07-20.654-2.828
			c-37.787-4.307-75.543-8.893-113.33-13.201c-40.381-4.605-80.727-9.498-121.119-14.031c-8.703-0.979-17.418-1.938-26.096-3.172
			c-1.797-0.254-4.229-0.045-4.691-2.207c-0.412-1.908,1.414-3.291,2.828-4.537c3.168-2.785,6.832-4.393,10.998-5.127
			c51.256-9.018,102.506-18.074,153.762-27.102c24.246-4.271,48.502-8.51,72.734-12.871c0.551-0.102,1.117-0.164,1.645-0.342
			c2.67-0.895,7.074-0.574,6.779-4.244c-0.262-3.281-4.486-3.398-7.371-3.768c-47.35-6.063-94.686-12.242-142.035-18.316
			c-28.482-3.654-56.979-7.221-85.434-11.119c-1.111-0.15-2.25-0.25-3.225-0.836c-2.447-1.467-3.727-3.736-3.627-6.512
			c0.104-2.969,2.66-3.254,4.852-3.654c13.029-2.379,26.154-4.176,39.236-6.225c84.027-13.156,168.086-26.146,252.104-39.371
			c0.369-0.057,0.742-0.064,1.48-0.094c-1.59-1.209-3.279-1.416-4.807-1.92c-59.889-19.717-119.969-38.834-179.904-58.4
			c-18.613-6.078-37.184-12.314-55.916-18.043c-2.188-0.67-5.85-1.014-5.541-3.691c0.328-2.859,3.971-2.762,6.51-3.063
			c34.627-4.068,69.275-7.922,103.885-12.146c3.838-0.469,7.734-0.945,11.633-0.557c-12.852-1.082-25.33-4.336-37.932-6.84
			c-58.006-11.525-115.977-23.211-173.992-34.686c-5.914-1.17-10.699-3.559-15.006-7.844c-28.021-27.882-57.164-54.599-85.623-82.03
			c-10.455-10.076-20.426-20.729-31.746-29.91c-1.586-1.285-2.975-2.832-4.225-4.467c-2.139-2.793-1.436-4.828,1.734-6.064
			c2.957-1.15,6.041-1.911,9.1-2.762c67.752-18.84,135.469-37.817,203.189-56.779c0.51-0.142,1.078-0.188,1.58-0.927
			c-10.465-5.991-21.211-11.441-31.656-17.429c-0.484-0.278-1.01-0.49-1.48-0.794c-1.818-1.176-4.664-1.909-4.24-4.549
			c0.381-2.365,3.197-2.192,5.098-2.605c10.211-2.215,20.512-3.969,30.775-5.918c19.225-3.652,38.438-7.38,57.727-10.671
			c5.123-0.873,10.303-1.48,15.43-2.333c4.58-0.341,9.037-1.872,11.514-1.898c-2.527,0.195-7.09,1.439-11.732,1.881
			c-25.316,4.402-50.904,6.786-76.369,10.085c-25.867,3.353-51.787,6.276-77.658,9.598c-11.826,1.518-23.676,2.869-35.525,4.199
			c-1.621,0.184-3.809,0.917-4.439-1.056c-0.576-1.812,1.426-2.828,2.838-3.711c11.697-7.329,23.523-14.448,35.313-21.627
			c6.189-3.77,12.182-7.888,17.879-10.913c-34.729,10.051-70.355,20.093-105.934,30.303c-2.328,0.669-4.627,1.494-7.076,1.59
			c-0.92,0.037-1.936-0.085-2.363-1.098c-0.438-1.028,0.291-1.782,0.904-2.438c1.416-1.512,3.217-2.539,4.93-3.661
			c35.199-23.036,70.088-46.539,105.738-68.861c-10.361,6.332-21.672,10.743-32.666,15.772
			c-22.893,10.469-45.938,20.615-68.707,31.339c-24.342,11.465-48.83,22.354-75.539,27.164c-0.549,0.099-1.082,0.291-1.633,0.383
			c-1.977,0.328-4.662,1.476-5.584-0.722c-0.967-2.305,1.9-3.244,3.508-4.266c56.191-35.728,112.047-71.981,168.436-107.394
			c11.35-7.128,24.295-11.372,36.568-16.794c34.793-15.383,69.553-30.845,104.324-46.275c5.781-2.566,11.486-5.318,16.734-7.306
			c-17.078,0.079-34.902,0.055-52.725-0.006c-1.822-0.007-4.381,0.299-4.916-1.704c-0.553-2.069,1.969-2.897,3.488-3.793
			c34.043-20.08,67.711-40.798,99.348-59.058c-14.58,6.722-32.186,14.065-49.881,21.116
			c-37.314,14.873-73.164,32.806-109.008,50.801c-68.023,34.151-136.146,68.105-204.248,102.104
			c-2.643,1.32-6.045,4.762-8.463,1.877c-2.371-2.835,0.957-6.283,2.766-8.938c3.117-4.573,8.156-7.063,12.586-10.079
			c42.717-29.068,85.201-58.475,127.855-87.629c31.566-21.575,62.979-43.377,94.648-64.799c5.627-3.805,11.277-7.584,17.184-10.954
			c-51.547,31.502-103.813,61.792-155.758,92.626c-57.904,34.371-115.918,68.557-173.846,102.89
			c-12.033,7.132-23.998,14.383-36.159,21.3c-0.973,0.551-1.896,1.196-2.922,1.651c-1.207,0.531-2.571,1.179-3.685,0.208
			c-1.22-1.065-0.439-2.462,0.127-3.595c3.022-6.06,6.716-11.336,12.638-15.257c42.781-28.314,85.58-56.612,128.076-85.351
			c46.053-31.142,92.598-61.549,138.605-92.754c44.465-30.159,89.355-59.677,133.979-89.6c4.518-3.029,8.678-6.393,12.527-10.245
			c54.053-54.117,108.148-108.191,162.227-162.285c2.377-2.376,4.805-4.688,7.465-6.721c-16.754,10.965-33.928,21.271-50.943,31.829
			c-61.652,38.251-123.361,76.415-185.074,114.569c-42.041,25.994-84.117,51.934-126.078,78.053
			c-17.873,11.124-36.57,21.034-53.023,34.349c-62.631,50.69-125.254,101.386-187.969,151.969
			c-10.883,8.78-21.802,17.527-32.594,26.425c-2.331,1.924-4.378,4.778-8.069,4.33c-1.448-1.277-0.459-2.532,0.372-3.339
			c4.36-4.233,7.602-9.403,12.968-12.871c6.669-4.311,12.375-10.061,18.568-15.102c1.474-0.926,2.83-2.053,4.459-2.732
			c16.034-13.514,32.055-27.042,48.105-40.532c16.186-13.604,32.402-27.176,48.607-40.753c13.684-11.465,27.377-22.917,41.063-34.38
			c13.844-11.599,27.975-22.876,41.451-34.884c17.404-15.502,37.752-26.425,57.428-38.429c26.842-16.37,53.701-32.71,80.549-49.067
			c26.424-16.102,52.842-32.216,79.268-48.31c27.01-16.447,54.004-32.921,81.053-49.305c30.246-18.325,60.576-36.517,90.816-54.854
			c24.016-14.563,47.953-29.26,71.922-43.902c1.646-1.007,3.07-2.612,5.643-1.817c-0.766,0.909-1.393,1.759-2.121,2.505
			c-17.598,17.991-35.195,35.977-52.813,53.946c-39.154,39.93-78.324,79.844-117.467,119.782c-1.949,1.987-3.764,4.106-5.57,6.225
			c-17.416,20.423-39.594,35.14-60.91,50.891c-32.529,24.042-64.922,48.272-97.66,72.029
			c-21.283,15.447-42.012,31.754-65.133,44.535c-0.457,0.251-0.813,0.688-1.215,1.038c-2.99,4.361-7.949,6.08-12.16,8.666
			c-11.738,7.207-23.555,14.294-35.361,21.394c-12.238,7.376-24.422,14.849-36.68,22.192c-2.484,1.251-4.744,2.874-7.086,4.363
			c-1.396,1.015-3.055,1.592-4.459,2.601c-2.266,1.427-4.57,2.792-6.854,4.193c-1.643,1.063-3.492,1.815-4.871,3.27
			c-0.863,0.251-1.627,0.708-1.879,0.842c0.5-0.439,1.902-0.463,2.793-1.461c1.197-1.312,2.969-1.729,4.336-2.777
			c2.27-1.429,4.576-2.796,6.863-4.199c1.408-1.001,3.063-1.583,4.461-2.603c2.258-1.631,4.672-3.007,7.107-4.345
			c12.244-7.431,24.463-14.903,36.768-22.225c14.387-8.9,28.98-17.457,43.432-26.246c1.789-1.086,3.789-1.342,5.541-2.329
			c38.172-22.907,76.326-45.852,114.525-68.715c33.332-19.95,66.715-39.817,100.084-59.708
			c16.271-9.698,32.561-19.364,48.844-29.045c0.984,0.238,1.422,0.809,1.115,1.833c-20.326,14.063-40.623,28.168-60.988,42.177
			c-33.969,23.364-68.012,46.614-101.963,70.003c-33.227,22.895-66.355,45.934-99.57,68.849
			c-23.338,16.099-46.744,32.095-70.109,48.157c-0.432,0.297-0.709,0.825-1.061,1.245c-1.275,3.573-5.248,3.781-7.566,6.046
			c-0.463,0.179-0.885,0.505-1.428,0.45c0.014,0.059,0.143,0.206,0.287,0.155c0.814-0.284,1.564-0.691,2.162-1.334
			c2.807-1.67,5.676-3.197,8.877-3.978c32.246-16.435,64.598-32.667,96.709-49.36c32.775-17.04,66.008-33.213,98.563-50.637
			c29.678-15.885,61.213-27.092,92.18-39.774c29.789-12.199,59.666-24.174,89.502-36.254c2.34-0.947,4.664-1.942,6.994-2.915
			c0.746,0.634,0.672,1.266-0.004,1.896c-21.662,13.051-43.291,26.161-64.994,39.142c-25.959,15.528-51.986,30.947-77.977,46.425
			c-0.463,0.276-0.826,0.717-1.975,1.734c5.586,0,10.375,0,15.16,0c5.707-1.076,11.531,0.426,17.227-0.82
			c5.453-0.103,10.908-0.206,16.363-0.308c5.35-1.052,10.826,0.429,16.17-0.813c4.596,0,9.193,0,13.789,0
			c0.086,0.243,0.17,0.485,0.254,0.728c-9.047,4.17-18.07,8.397-27.148,12.497c-14.029,6.332-28.111,12.547-42.146,18.862
			c-15.816,7.115-31.598,14.314-47.42,21.422c-13.373,6.009-26.816,11.867-40.168,17.925c-12.971,5.885-25.791,12.111-38.824,17.857
			c-9.639,4.249-17.934,10.646-26.855,16.027c-17.457,10.529-34.713,21.395-52.018,32.179
			c-17.861,11.133-35.682,22.336-53.52,33.506c-0.461,1.262-1.326,2.093-1.686,2.196c0.432-0.171,1.822-0.523,3.24-0.752
			c69.32-30.519,138.639-61.04,207.957-91.561c0.32,0.588,0.639,1.177,0.957,1.765c-50.027,32.231-100.053,64.464-151.178,97.402
			c5.521,0.666,9.004-1.56,12.615-2.679c39.025-12.097,78.004-24.341,116.963-36.648c2.006-0.632,4-0.717,5.996-1.076
			c0.41-0.251,0.768-0.201,1.059,0.201c-25.389,15.435-50.777,30.871-76.387,46.441c1.541,0.932,2.627,0.599,3.709,0.356
			c1.896-0.822,4.043,0.177,5.918-0.812c1.76-0.109,3.518-0.216,5.279-0.324c1.873-0.811,4.004,0.226,5.842-0.815
			c1.408-0.087,2.818-0.175,4.227-0.26c1.961-0.831,4.156,0.079,6.104-0.827c1.699-0.103,3.396-0.203,5.094-0.306
			c1.926-0.829,4.092,0.125,6.002-0.813c1.732-0.107,3.465-0.214,5.193-0.321c1.9-0.82,4.051,0.17,5.93-0.812
			c1.758-0.107,3.512-0.216,5.27-0.324c1.871-0.811,4.002,0.226,5.844-0.814c1.408-0.086,2.816-0.173,4.225-0.259
			c1.959-0.837,4.156,0.077,6.105-0.828c1.697-0.102,3.393-0.203,5.092-0.304c1.926-0.834,4.092,0.124,6.002-0.814
			c1.73-0.107,3.463-0.214,5.195-0.322c1.902-0.818,4.049,0.168,5.93-0.809c1.756-0.109,3.512-0.219,5.266-0.328
			c1.881-0.805,4.014,0.217,5.863-0.809c1.402-0.087,2.805-0.175,4.207-0.265c1.961-0.835,4.156,0.079,6.104-0.827
			c1.699-0.103,3.396-0.203,5.094-0.304c1.924-0.835,4.092,0.123,6.002-0.815c1.732-0.105,3.463-0.212,5.193-0.317
			c1.9-0.827,4.053,0.164,5.934-0.813c1.756-0.109,3.51-0.216,5.266-0.324c1.879-0.812,4.014,0.212,5.863-0.812
			c1.402-0.089,2.803-0.176,4.205-0.265c1.969-0.831,4.17,0.071,6.125-0.831c1.689-0.1,3.381-0.2,5.074-0.301
			c1.93-0.829,4.102,0.115,6.021-0.813c1.723-0.105,3.449-0.212,5.174-0.319c1.9-0.827,4.051,0.166,5.932-0.813
			c1.756-0.107,3.51-0.214,5.266-0.321c1.877-0.816,4.014,0.212,5.861-0.813c1.402-0.088,2.805-0.175,4.209-0.26
			c1.963-0.842,4.168,0.068,6.125-0.835c1.689-0.101,3.381-0.201,5.07-0.302c1.934-0.829,4.104,0.116,6.023-0.813
			c1.725-0.107,3.449-0.212,5.174-0.319c1.906-0.821,4.061,0.157,5.947-0.809c1.75-0.108,3.498-0.218,5.25-0.326
			c1.889-0.808,4.023,0.201,5.883-0.81c1.395-0.087,2.791-0.176,4.186-0.264c1.967-0.841,4.17,0.069,6.125-0.835
			c1.691-0.1,3.381-0.198,5.072-0.297c1.932-0.835,4.104,0.112,6.023-0.816c1.725-0.105,3.449-0.212,5.174-0.317
			c1.906-0.829,4.059,0.155,5.949-0.813c1.748-0.109,3.498-0.216,5.248-0.326c1.887-0.807,4.023,0.203,5.885-0.81
			c2.488-0.05,4.977-0.103,7.467-0.155c1.172-0.487,1.34,0.072,1.094,1.057c-13.92,2.559-27.84,5.13-41.766,7.675
			c-36.861,6.733-73.719,13.519-110.602,20.156c-19.947,3.588-39.943,6.901-59.91,10.383c-1.209,0.211-2.352,0.819-4.57,1.618
			c15.221,8.001,29.639,15.579,44.895,23.597c-75.771,20.799-150.521,41.315-225.336,61.85c0.273,2.666,2.303,3.592,3.643,4.926
			c35.123,35.029,70.438,69.871,105.322,105.136c6.42,6.49,13.174,10.438,22.15,12.125c40.52,7.611,80.961,15.65,121.406,23.652
			c23.428,4.635,46.742,9.869,70.238,14.109c15.061,2.719,29.906,6.635,45.152,8.318c1.09,1.639-0.418,1.594-1.277,1.971
			c-14.135,1.684-28.279,3.289-42.402,5.066c-18.945,2.391-37.877,4.904-56.813,7.385c-11.809,1.547-23.613,3.129-35.641,6.043
			c87.115,26.365,174.229,52.729,261.342,79.096c-0.063,0.283-0.127,0.566-0.193,0.85c-106.719,15.775-213.439,31.555-320.16,47.33
			c0.006,0.32,0.014,0.643,0.018,0.961c14.451,1.893,28.906,3.762,43.355,5.682c13.006,1.727,25.998,3.561,39.01,5.254
			c12.826,1.666,25.672,3.156,38.498,4.83c15.938,2.08,31.855,4.303,47.791,6.4c12.461,1.641,24.938,3.168,37.402,4.779
			c8.424,1.09,16.855,2.133,25.256,3.396c4.486,0.674,6.311,4.883,8.904,7.832c1.383,1.572-1.252,2.551-2.262,3.637
			c-7.283,7.834-17.367,7.967-26.865,9.67c-24.283,4.357-48.561,8.744-72.863,13.002c-22.523,3.945-45.078,7.709-67.611,11.611
			c-21.02,3.643-42.025,7.359-63.037,11.055c-0.697,0.123-1.371,0.383-2.068,1.299c11.844,1.518,23.691,3,35.529,4.563
			c16.117,2.125,32.217,4.371,48.334,6.455c12.842,1.662,25.709,3.098,38.551,4.742c13.195,1.693,26.369,3.568,39.564,5.271
			c12.828,1.652,25.676,3.16,38.504,4.795c13.205,1.686,26.398,3.449,39.592,5.186c6.604,0.865,13.193,2.363,19.803,2.439
			c5.402,0.063,8.633,2.479,11.365,6.309c-3.178,5.32-8.277,6.488-13.982,7.381c-19.898,3.107-39.729,6.654-59.578,10.07
			c-21.396,3.684-42.791,7.381-64.18,11.117c-24.488,4.279-48.963,8.641-73.455,12.906c-9.799,1.709-19.588,3.574-29.455,4.725
			c-4.295,0.5-6.701,2.482-8.553,5.895C1172.127,1265.235,1172.314,1268.327,1173,1271.423z"/>
		<path style="fill:#232323;" d="M787.823,583.606c-7.381,6.035-14.273,12.602-22.214,18.041
			c-4.415,3.024-7.348,8.209-10.951,12.421c-0.671,4.87-5.828,6.523-7.59,10.611c-21.7,24.082-42.693,48.791-64.574,72.712
			c-2.642,2.891-3.107,5.354-0.822,8.874c19.502,30.028,38.92,60.108,58.365,90.17c40.102,62.01,80.24,123.993,120.328,186.011
			c21.869,33.826,43.773,67.627,65.668,101.439c39.73,61.357,79.439,122.732,119.123,184.123
			c21.459,33.201,42.92,66.4,64.439,99.563c8.424,12.986,16.895,25.939,25.193,39.002c0.943,1.824,2.592,3.324,2.609,5.58
			c0.607,2.301,2.354,2.49,4.295,2.316c18.15,73.029,36.287,146.063,54.457,219.086c5.213,20.939,10.533,41.852,15.771,62.783
			c0.66,2.639,0.219,5.494,1.496,8.029c0.143,2.102-0.938,1.771-2.189,1.1c-13.314-40.479-26.863-80.875-40.885-121.119
			c-17.875-51.303-35.111-102.83-52.732-154.221c-2.363-6.898-7.279-12.457-11.051-18.596c-11.088-18.037-22.629-35.797-33.9-53.725
			c-15.84-25.18-31.619-50.396-47.383-75.625c-27.291-43.684-54.549-87.391-81.824-131.088
			c-23.828-38.174-47.699-76.322-71.482-114.525c-27.322-43.885-54.545-87.832-81.854-131.723
			c-24.952-40.095-49.964-80.153-74.941-120.235c-15.533-24.926-30.624-50.136-47.364-74.29c-2.246-3.239-1.47-6.061,0.669-8.579
			c11.424-13.462,22.999-26.792,34.473-40.212c14.853-17.372,29.614-34.821,44.497-52.165
			c14.524-16.926,29.208-33.716,43.725-50.648c14.514-16.926,29.026-33.858,43.323-50.967c15.887-19.017,32.777-36.88,52.52-52.094
			c16.77-12.922,32.656-26.985,48.93-40.549c19.553-16.295,39.131-32.558,58.641-48.904c15.098-12.649,30.098-25.417,45.162-38.109
			c18.188-15.325,36.432-30.583,54.592-45.942c15.891-13.445,31.662-27.033,47.553-40.48c15.318-12.961,30.744-25.794,46.08-38.736
			c13.354-11.269,26.619-22.635,39.965-33.911c15.895-13.432,31.855-26.786,47.748-40.222
			c15.471-13.077,30.871-26.242,46.342-39.318c15.895-13.433,31.855-26.789,47.76-40.21c10.51-8.872,20.959-17.816,31.465-26.689
			c1.285-1.084,2.127-3.424,4.547-1.967c1.729,10.65-5.559,16.104-12.465,21.884c-11.627,9.731-23.137,19.602-34.709,29.399
			c-14.248,12.066-28.553,24.073-42.76,36.189c-11.266,9.607-22.383,19.391-33.639,29.005c-14.488,12.37-29.088,24.606-43.57,36.982
			c-13.787,11.78-27.439,23.719-41.234,35.489c-14.209,12.125-28.561,24.087-42.775,36.209
			c-11.27,9.608-22.371,19.417-33.646,29.021c-14.223,12.119-28.584,24.074-42.814,36.186c-11.006,9.37-21.855,18.922-32.855,28.296
			c-17.039,14.516-34.189,28.896-51.205,43.437c-13.932,11.905-27.676,24.026-41.611,35.924
			c-13.92,11.883-28.193,23.355-41.914,35.459c-20.496,18.078-42.021,34.986-59.436,56.47
			c-13.428,16.563-28.457,31.824-42.706,47.724c-6.172,6.888-12.174,13.925-18.251,20.893
			C789.459,580.685,789.194,582.446,787.823,583.606z"/>
		<path style="fill:#232323;" d="M509.217,706.777c8.419-2.945,16.915-5.69,25.227-8.914c4.459-1.728,6.598-0.555,8.64,3.674
			c20.32,42.099,40.812,84.115,61.287,126.145c15.907,32.654,31.877,65.278,47.781,97.933c12.64,25.953,25.233,51.928,37.827,77.904
			c17.306,35.689,34.571,71.4,51.895,107.082c14.07,28.979,28.19,57.932,42.308,86.887c15.017,30.799,30.217,61.508,45.033,92.402
			c13.047,27.207,26.35,54.279,40.467,80.949c1.25,2.367,2.924,4.893,1.203,7.818c-7.922-6.537-12.094-15.814-17.504-24.158
			c-14.436-22.254-28.602-44.684-42.999-66.963c-17.833-27.594-35.794-55.104-53.693-82.652
			c-10.184-15.674-20.646-31.17-29.904-47.424c-9.834-17.266-19.583-34.584-29.408-51.855
			c-13.385-23.527-26.987-46.932-40.169-70.574c-14.629-26.238-29.237-52.336-40.012-80.691
			c-20.263-53.326-42.592-105.864-64.005-158.753c-11.188-27.635-22.364-55.276-31.654-83.629c-1.039-3.167-2.08-4.546-6.165-3.125
			c-104.876,36.485-209.848,72.697-314.715,109.208c-9.545,3.322-16.66,11.045-24.708,16.959
			c-24.414,17.945-48.603,36.194-72.851,54.362c-1.767,1.326-3.308,2.953-4.953,4.438c-2.626-0.57-2.552-2.809-2.942-4.762
			c0.107-2.766,2.073-4.246,4.015-5.717c31.195-23.644,62.809-46.729,94.075-70.28c1.81-1.365,3.793-2.365,5.946-3.035
			c10.681-3.326,21.09-7.441,31.711-10.941c46.561-15.338,92.907-31.316,139.375-46.93c43.46-14.604,86.835-29.467,130.313-44.017
			C503.372,707.203,506.077,705.38,509.217,706.777z"/>
		<path style="fill:#232323;" d="M96.148,889.349c0.666,1.482,1.332,2.969,1.998,4.451c-6.561,9.008-13.12,18.012-19.681,27.02
			c-3.192-0.42-2.406-2.594-1.84-4.467c1.008-3.336,1.712-6.754,2.847-10.051c2.782-10.119,5.566-20.234,8.347-30.355
			c1.729-6.295,3.879-12.513,5.08-18.907c1.815-9.678,7.53-17.045,12.824-24.889c8.611-12.762,16.249-26.18,24.859-38.943
			c8.82-13.074,15.77-27.322,26.589-39.178c13.501-14.793,26.865-29.729,40.187-44.681c9.552-10.724,19.177-21.414,29.014-31.845
			c6.364-6.748,13.39-12.971,19.843-19.713c0.519,0.166,0.886,0.503,1.122,0.988c-5.458,8.697-12.565,16.117-19.205,23.827
			c-10.338,12.008-19.093,25.168-28.877,37.563c-6.077,7.699-11.915,15.589-17.345,24.625
			c114.478-25.146,228.955-50.29,344.55-75.679c-2.329,3.91-5.345,3.477-7.627,4.028c-43.832,10.595-87.706,21.021-131.564,31.515
			c-44.575,10.664-89.139,21.367-133.71,32.045c-14.433,3.458-28.848,6.994-43.329,10.239c-2.832,0.635-4.75,1.943-6.24,4.179
			c-6.601,9.902-13.177,19.824-20.377,30.662c11.728-2.766,22.567-5.287,33.39-7.877c49.106-11.752,98.194-23.579,147.314-35.269
			c29.247-6.961,58.543-13.718,87.82-20.566c1.306-0.774,2.242-0.661,2.515,1.046c-1.327,2.162-3.667,2.394-5.795,2.953
			c-32.634,8.575-65.277,17.124-97.932,25.62c-55.749,14.503-111.504,28.983-167.244,43.524c-2.345,0.611-4.686,1.266-7.079,1.652
			c-1.675,0.271-3.521,0.473-4.523-1.266c-0.849-1.469,0.054-2.912,0.841-4.168c3.661-5.85,7.647-11.486,11.399-17.271
			c3.706-5.717,7.788-11.205,11.821-18.315c-7.705,1.756-14.173,3.183-20.479,5.264c-2.047,0.676-3.149,2.541-4.327,4.229
			c-20.698,29.658-41.318,59.367-61.874,89.121c-6.712,9.715-9.805,21.292-14.718,31.94c-3.894,8.439-7.097,17.193-10.62,23.902
			c1.75-3.766,4.851-8.76,7.941-13.754C92.984,891.058,93.751,889.081,96.148,889.349z"/>
		<path style="fill:#FCFCFC;" d="M1036.146,496.423c-15.795,10.435-32.199,19.86-48.617,29.257
			c-1.289,0.575-1.465-0.131-1.346-1.172c16.004-9.808,32.008-19.616,48.012-29.421
			C1034.539,495.981,1035.242,496.353,1036.146,496.423z"/>
		<path style="fill:#3F643F;" d="M79.472,906.302c0.51,3.396-1.078,6.434-1.69,9.635c-0.335,1.76-1.42,3.508,0.684,4.883
			c-1.407,3.123-3.522,5.641-6.287,7.695C74.001,920.786,76.183,913.358,79.472,906.302z"/>
		<path style="fill:#353D35;" d="M247.336,658.779c-0.374-0.328-0.748-0.658-1.122-0.988c2.056-3.239,4.882-5.746,7.77-8.196
			C254.171,654.395,250.206,656.19,247.336,658.779z"/>
		<path style="fill:#FCFCFC;" d="M969.355,572.558c-2.93,1.528-5.861,3.057-8.791,4.583c-0.682,0.433-1.299,0.352-1.846-0.245
			c2.768-1.894,5.537-3.786,8.305-5.679C967.467,572.248,968.348,572.511,969.355,572.558z"/>
		<path style="fill:#3B433B;" d="M1211.229,1705.468c0.932,0.033,1.699-0.258,2.189-1.1c1.947,2.705,0.732,6.119,2.008,8.975
			C1211.934,1711.835,1212.939,1707.929,1211.229,1705.468z"/>
		<path style="fill:#FCFCFC;" d="M1240.74,481.994c-5.697,1.211-11.469,0.875-17.227,0.82
			C1229.174,480.796,1235,482.281,1240.74,481.994z"/>
		<path style="fill:#FCFCFC;" d="M1273.273,480.873c-5.344,1.244-10.764,0.868-16.17,0.813
			C1262.408,479.757,1267.881,481.106,1273.273,480.873z"/>
		<path style="fill:#E5492F;" d="M1300.715,340.787c-0.371-0.61-0.744-1.222-1.115-1.833c1.871-1.164,3.744-2.327,5.615-3.49
			c0.914,0.25,1.24,0.843,1.039,1.752C1304.406,338.406,1302.561,339.597,1300.715,340.787z"/>
		<path style="fill:#EA725E;" d="M1370.066,639.612c-0.365-0.352-0.729-0.704-1.094-1.057c2.816-1.666,5.949-0.953,8.957-1.187
			c1.121-0.368,1.367,0.07,0.996,1.078C1375.973,638.835,1373.02,639.222,1370.066,639.612z"/>
		<path style="fill:#FCFCFC;" d="M960.771,653.318c-2.398,1.638-4.971,2.797-8.17,2.434c2.205-1.292,4.41-2.585,6.615-3.877
			C959.736,652.357,960.254,652.838,960.771,653.318z"/>
		<path style="fill:#FCFCFC;" d="M1155.141,620.722c-0.373,0.026-0.725-0.042-1.059-0.201c0.844-3.284,3.943-1.54,5.752-2.71
			C1158.895,619.882,1157.088,620.422,1155.141,620.722z"/>
		<path style="fill:#F5BCB2;" d="M1378.926,638.446c-0.332-0.359-0.666-0.72-0.996-1.078c2.063-1.792,4.42-0.722,6.799-0.234
			C1382.793,637.571,1380.859,638.009,1378.926,638.446z"/>
		<path style="fill:#FCFCFC;" d="M1173,1271.423c-1.824-3.109-0.84-6.186,0.111-9.264
			C1173.074,1265.245,1173.037,1268.335,1173,1271.423z"/>
		<path style="fill:#E6553C;" d="M1353.299,395.513c0-0.632,0.002-1.264,0.004-1.896c1.316-0.522,2.484-1.69,4.211-0.912
			C1356.629,394.483,1354.93,394.949,1353.299,395.513z"/>
		<path style="fill:#E8614B;" d="M1306.254,337.216c-0.348-0.584-0.693-1.168-1.039-1.752c1.197-1.124,2.451-1.99,4.23-1.012
			C1308.898,336.074,1307.516,336.576,1306.254,337.216z"/>
		<path style="fill:#FCFCFC;" d="M787.823,583.606c-0.339-2.085,0.761-3.392,2.386-4.42c0.323,0.394,0.647,0.79,0.971,1.183
			C790.786,582.201,789.12,582.712,787.823,583.606z"/>
		<path style="fill:#FCFCFC;" d="M1339.412,935.128c0.426-0.656,0.854-1.314,1.277-1.971c1.078,0.168,3.201-0.66,2.848,1.059
			C1343.15,936.101,1340.879,935.007,1339.412,935.128z"/>
		<path style="fill:#FCFCFC;" d="M1324.732,324.585c-0.602,1.555-1.795,1.826-3.182,2.075
			C1321.771,324.545,1323.066,324.434,1324.732,324.585z"/>
		<path style="fill:#FCFCFC;" d="M1208.248,654.408c-1.898,1.036-3.947,0.949-6.002,0.815
			C1204.063,653.603,1206.219,654.478,1208.248,654.408z"/>
		<path style="fill:#FCFCFC;" d="M1197.152,655.527c-1.924,1.083-4.012,0.956-6.104,0.827
			C1192.896,654.701,1195.096,655.619,1197.152,655.527z"/>
		<path style="fill:#FCFCFC;" d="M1328.154,642.089c-1.928,1.1-4.027,0.96-6.125,0.835
			C1323.885,641.26,1326.09,642.192,1328.154,642.089z"/>
		<path style="fill:#FCFCFC;" d="M1186.842,656.618c-1.859,0.954-3.848,0.962-5.863,0.809
			C1182.758,655.871,1184.863,656.708,1186.842,656.618z"/>
		<path style="fill:#FCFCFC;" d="M1317.844,643.189c-1.867,0.95-3.863,0.965-5.883,0.81
			C1313.744,642.432,1315.859,643.274,1317.844,643.189z"/>
		<path style="fill:#FCFCFC;" d="M1175.713,657.755c-1.877,0.995-3.896,0.956-5.93,0.809
			C1171.58,656.979,1173.711,657.828,1175.713,657.755z"/>
		<path style="fill:#FCFCFC;" d="M1306.711,644.324c-1.883,1.008-3.91,0.945-5.947,0.809
			C1302.564,643.542,1304.701,644.394,1306.711,644.324z"/>
		<path style="fill:#FCFCFC;" d="M1164.588,658.886c-1.896,1.036-3.945,0.949-6.002,0.814
			C1160.404,658.083,1162.561,658.956,1164.588,658.886z"/>
		<path style="fill:#FCFCFC;" d="M1153.494,660.004c-1.926,1.083-4.016,0.957-6.105,0.828
			C1149.238,659.179,1151.434,660.096,1153.494,660.004z"/>
		<path style="fill:#FCFCFC;" d="M1143.164,661.091c-1.854,0.955-3.836,0.968-5.844,0.814
			C1139.09,660.349,1141.191,661.187,1143.164,661.091z"/>
		<path style="fill:#FCFCFC;" d="M1132.051,662.229c-1.879,0.978-3.895,0.96-5.93,0.812
			C1127.92,661.458,1130.047,662.306,1132.051,662.229z"/>
		<path style="fill:#FCFCFC;" d="M1120.928,663.362c-1.896,1.035-3.947,0.945-6.002,0.813
			C1116.744,662.562,1118.898,663.432,1120.928,663.362z"/>
		<path style="fill:#FCFCFC;" d="M1295.59,645.453c-1.902,1.047-3.961,0.951-6.023,0.813
			C1291.393,644.646,1293.553,645.522,1295.59,645.453z"/>
		<path style="fill:#FCFCFC;" d="M1099.502,665.569c-1.852,0.956-3.836,0.969-5.842,0.815
			C1095.428,664.828,1097.529,665.665,1099.502,665.569z"/>
		<path style="fill:#FCFCFC;" d="M1088.381,666.708c-1.875,0.982-3.889,0.96-5.918,0.812
			C1084.254,665.936,1086.381,666.785,1088.381,666.708z"/>
		<path style="fill:#FCFCFC;" d="M1339.25,640.976c-1.904,1.045-3.959,0.948-6.023,0.816
			C1335.053,640.167,1337.215,641.046,1339.25,640.976z"/>
		<path style="fill:#FCFCFC;" d="M1284.496,646.568c-1.93,1.1-4.029,0.96-6.125,0.835
			C1280.223,645.739,1282.43,646.67,1284.496,646.568z"/>
		<path style="fill:#FCFCFC;" d="M1274.162,647.664c-1.857,0.956-3.848,0.969-5.861,0.813
			C1270.076,646.911,1272.184,647.753,1274.162,647.664z"/>
		<path style="fill:#FCFCFC;" d="M1350.373,639.846c-1.883,1.008-3.91,0.951-5.949,0.813
			C1346.225,639.063,1348.361,639.918,1350.373,639.846z"/>
		<path style="fill:#FCFCFC;" d="M1109.832,664.482c-1.924,1.083-4.012,0.956-6.104,0.827
			C1105.58,663.658,1107.775,664.574,1109.832,664.482z"/>
		<path style="fill:#FCFCFC;" d="M1251.93,649.931c-1.904,1.039-3.961,0.945-6.021,0.813
			C1247.73,649.124,1249.895,650.001,1251.93,649.931z"/>
		<path style="fill:#FCFCFC;" d="M1240.834,651.045c-1.93,1.102-4.027,0.955-6.125,0.831
			C1236.563,650.22,1238.77,651.147,1240.834,651.045z"/>
		<path style="fill:#FCFCFC;" d="M1230.504,652.141c-1.861,0.954-3.85,0.97-5.863,0.812
			C1226.414,651.39,1228.525,652.23,1230.504,652.141z"/>
		<path style="fill:#FCFCFC;" d="M1263.035,648.798c-1.879,0.995-3.898,0.956-5.932,0.813
			C1258.898,648.022,1261.031,648.873,1263.035,648.798z"/>
		<path style="fill:#FCFCFC;" d="M1219.375,653.277c-1.879,0.995-3.898,0.954-5.934,0.813
			C1215.238,652.5,1217.369,653.349,1219.375,653.277z"/>
		<path style="fill:#FCFCFC;" d="M1361.506,638.71c-1.867,0.965-3.865,0.971-5.885,0.81
			C1357.402,637.954,1359.518,638.796,1361.506,638.71z"/>
		<path style="fill:#FCFCFC;" d="M1215.68,1719.142c1.451-0.277,1.129-1.471,1.252-2.432c1.119,0.949,1.445,2.367,0.656,3.352
			C1216.814,1721.024,1216.176,1719.812,1215.68,1719.142z"/>
		<path style="fill:#336633;" d="M96.148,889.349c-4.87,7.637-9.741,15.273-14.612,22.91c-0.293-0.135-0.587-0.268-0.881-0.402
			c3.308-7.869,6.593-15.748,9.926-23.605c4.212-9.928,8.477-19.834,12.69-29.761c3.898-9.191,10.449-16.701,15.965-24.832
			c13.982-20.615,28.578-40.813,42.663-61.357c12.088-17.635,11.922-17.76,32.721-21.68c0.986-0.188,2.112-0.94,3.206,0.063
			c0.185,2.228-1.318,3.724-2.438,5.4c-6.917,10.369-13.875,20.713-20.67,31.164c-0.787,1.211-3.044,2.453-1.574,4.215
			c1.041,1.252,2.762,0.154,4.19-0.219c26.95-7.008,53.909-13.979,80.862-20.975c57.14-14.831,114.278-29.664,171.415-44.513
			c8.262-2.147,16.503-4.379,24.754-6.571c2.053-2.321,5.049-2.12,7.684-2.811c14.096-3.692,28.277-7.035,42.385-10.687
			c1.288-0.333,2.479-0.761,3.695,0.092c0.363,0.332,0.726,0.667,1.089,0.999c-69.909,23.544-139.828,47.063-209.723,70.649
			c-32.043,10.813-63.98,21.945-96.098,32.531c-10.093,3.328-17.393,10.521-25.535,16.484
			c-26.205,19.195-52.076,38.847-78.113,58.272C98.068,885.972,96.332,887.009,96.148,889.349z"/>
		<path style="fill:#232423;" d="M316.662,681.086c-2.465-0.503-5.119-0.457-2.097-4.197c5.248-6.489,9.996-13.383,14.992-20.079
			c2.48-3.324,6.458-4.318,9.935-5.978c18.635-8.897,37.351-17.621,56.016-26.457c21.013-9.948,42.747-18.194,64.138-27.25
			c10.554-4.467,21.123-8.9,31.958-13.466c-0.031,2.337-1.537,3.002-2.498,3.964c-19.222,19.253-38.488,38.462-57.722,57.705
			c-2.961,2.963-6.111,5.454-10.551,5.55c-0.3-0.441-0.368-0.914-0.206-1.422c3.072-3.582,6.11-7.201,9.778-10.214
			c2.102-1.209,3.846-2.814,5.253-4.791c1.896-1.914,4.138-3.481,5.688-5.743c11.646-11.493,23.859-22.388,35.489-33.803
			c0.394-0.56,0.735,0.37,0.287-0.208c-0.411-0.531-0.522,0.414-0.932,0.372c-13.024,5.664-25.792,11.825-38.839,17.35
			c-1.172,0.459-2.338,0.934-3.479,1.465c-1.318,0.584-2.601,1.253-3.907,1.871c-0.652,0.291-1.333,0.511-2.015,0.72
			c-1.371,0.415-2.625,1.087-3.881,1.761c-1.337,0.68-2.726,1.231-4.121,1.771c-6.188,2.657-12.374,5.304-18.349,8.413
			c-1.555,0.726-3.199,1.229-4.791,1.861c-0.844,0.359-1.689,0.722-2.517,1.115c-0.796,0.392-1.601,0.768-2.395,1.161
			c-0.791,0.401-1.588,0.792-2.379,1.197c-0.818,0.43-1.638,0.854-2.453,1.296c-0.871,0.485-1.742,0.962-2.632,1.417
			c-13.894,5.987-27.544,12.506-41.407,18.546c-1.929,0.849-3.794,1.837-5.769,2.581c-4.507,1.069-7.536,3.934-9.624,7.936
			c-0.871,1.207-1.735,2.417-2.493,3.701c-2.157,2.968-4.027,6.144-6.351,8.998C317.877,679.029,317.412,680.166,316.662,681.086z"
			/>
		<path style="fill:#2F362F;" d="M420.832,650.036c0.011,0.282,0.009,0.563-0.002,0.844c-11.575,5.014-23.625,8.708-35.533,12.801
			c-11.95,4.107-23.932,8.126-35.834,12.371c-3.766,1.341-7.514,2.025-11.469,1.74c-0.376-0.571-0.314-1.089,0.18-1.556
			c20.626-6.802,41.097-14.061,61.674-21.002c2.423-0.514,4.772-1.286,7.109-2.102c2.336-0.668,4.479-1.886,6.855-2.444
			C416.157,650.542,418.334,648.532,420.832,650.036z"/>
		<path style="fill:#293B29;" d="M508.128,705.78c-17.92,4.47-35.841,8.938-53.762,13.406c-0.472-0.916-1.334-1.052-2.23-1.116
			c13.175-4.171,26.782-6.62,40.147-10.033c3.754-0.96,7.542-1.799,11.288-2.797C505.209,704.802,506.779,704.113,508.128,705.78z"
			/>
		<path style="fill:#3F493F;" d="M337.988,676.888c0.004,0.302,0.006,0.603,0.004,0.904c-5,1.886-10.386,1.029-15.517,2.157
			c-1.91,0.42-3.979,0.177-5.813,1.137c0.064-1.183-0.359-2.507,0.973-3.318c4.891-0.813,9.8-1.488,14.737-1.952
			C334.344,675.63,336.417,674.955,337.988,676.888z"/>
		<path style="fill:#DF6100;" d="M745.972,624.152c2.239-3.928,5.66-6.837,8.686-10.084c9.515-5.556,17.293-13.357,25.854-20.132
			c20.683-16.37,41.147-33.014,61.644-49.616c18.912-15.319,37.725-30.761,56.629-46.088c15.871-12.873,31.822-25.649,47.721-38.489
			c13.873-11.206,27.18-23.214,41.725-33.463c16.697-11.766,34.439-22.061,51.809-32.863c28.279-17.584,56.615-35.078,84.945-52.583
			c39.883-24.641,79.799-49.231,119.67-73.891c28.006-17.32,55.957-34.729,83.945-52.079c24.279-15.052,48.574-30.075,73.295-45.378
			c-0.449,2.614-2.213,3.497-3.426,4.712c-57.092,57.147-114.113,114.369-171.436,171.285c-10.055,9.982-23,16.375-34.711,24.271
			c-33.328,22.476-66.848,44.674-100.277,67.005c-45.494,30.396-90.98,60.799-136.453,91.229
			c-46.713,31.256-93.34,62.638-140.176,93.706c-6.215,4.125-8.76,10.263-11.603,16.957
			c124.904-73.865,249.808-147.729,374.712-221.593c0.203,0.29,0.41,0.578,0.615,0.869c-5.578,3.895-11.127,7.83-16.74,11.673
			c-36.371,24.918-72.766,49.802-109.133,74.727c-39.129,26.817-78.262,53.625-117.322,80.54
			c-6.432,4.432-13.979,8.08-15.459,17.553c2.518-0.039,4.311-1.438,6.197-2.38c85.75-42.827,171.461-85.73,257.232-128.506
			c25-12.468,51.215-22.178,76.838-33.237c11.102-4.792,22.264-9.445,33.416-14.112c1.451-0.606,2.746-2.075,5.373-0.842
			c-36.873,21.993-73.314,43.724-111.115,66.269c21.662,0,41.779,0,61.895,0c0.084,0.348,0.168,0.693,0.254,1.041
			c-8.205,3.724-16.385,7.505-24.621,11.161c-22.109,9.815-44.238,19.588-66.367,29.358c-21.279,9.395-42.613,18.658-63.828,28.192
			c-9.707,4.362-18.209,10.855-27.148,16.532c-49.469,31.425-98.826,63.032-148.211,94.586c-0.924,0.589-1.754,1.322-2.803,2.12
			c1.979,1.478,3.525-0.028,5.129-0.306c27.6-4.8,52.785-16.191,77.936-27.945c34.182-15.975,68.676-31.28,103.531-46.061
			c-38.051,24.982-76.1,49.961-114.148,74.943c0.184,0.448,0.367,0.899,0.551,1.347c39.584-11.295,79.166-22.587,118.752-33.88
			c0.176,0.389,0.355,0.778,0.535,1.168c-20.107,12.353-40.215,24.704-60.322,37.057c0.088,0.26,0.176,0.518,0.262,0.778
			c13.084-1.563,26.17-3.096,39.25-4.697c13.424-1.646,26.842-3.359,40.262-5.042c17.094-2.143,34.184-4.318,51.285-6.415
			c13.428-1.646,26.867-3.224,40.307-4.776c7.184-0.829,14.377-1.537,21.568-2.3c1.172-0.409,1.387,0.125,1.115,1.133
			c-36.244,6.81-72.49,13.619-110.197,20.703c14.459,7.959,27.848,15.329,42.691,23.496c-10.643,3.048-19.918,5.756-29.221,8.36
			c-38.818,10.866-77.65,21.691-116.471,32.551c-23.793,6.659-47.549,13.45-71.391,19.931c-3.846,1.043-4.537,1.773-1.492,4.641
			c19.391,18.242,38.719,36.549,58.084,54.822c8.398,7.926,16.426,16.217,24.975,24.016c13.762,12.555,26.885,25.808,40.229,38.817
			c2.457,2.398,5.031,3.912,8.596,4.619c55.109,10.934,110.174,22.092,165.262,33.15c17.588,3.531,35.205,6.93,52.734,11.195
			c-41.471,4.842-82.941,9.684-124.414,14.523c-0.018,0.369-0.033,0.736-0.051,1.104c83.451,27.033,166.906,54.066,250.359,81.1
			c-0.006,0.404-0.012,0.809-0.016,1.213c-5.887,1.01-11.764,2.084-17.662,3.018c-23.422,3.709-46.844,7.418-70.279,11.047
			c-29.664,4.592-59.348,9.053-89.008,13.672c-22.883,3.563-45.734,7.309-68.609,10.918c-17.205,2.717-34.426,5.334-51.631,8.037
			c-1.602,0.25-4.512-0.793-4.029,2.223c0.373,2.35,1.051,5.203,4.479,5.621c18.209,2.217,36.418,4.434,54.609,6.781
			c15.984,2.063,31.934,4.373,47.92,6.43c18.744,2.412,37.525,4.578,56.27,7.008c21.494,2.785,42.967,5.74,64.447,8.633
			c3.305,0.445,6.631,0.418,9.945,1.193c3.09,0.723,5.74,2.566,6.123,4.99c0.465,2.926-3.236,3.906-5.508,4.467
			c-6.828,1.682-13.773,2.9-20.703,4.125c-24.455,4.324-48.92,8.578-73.385,12.859c-26.83,4.699-53.666,9.391-80.494,14.104
			c-19.715,3.461-39.422,6.969-59.137,10.424c-5.033,0.881-8.615,3.965-12.641,8.039c8.238,0.977,15.816,1.863,23.393,2.775
			c17.842,2.145,35.674,4.359,53.525,6.438c14.361,1.67,28.75,3.107,43.109,4.785c14.354,1.674,28.68,3.568,43.031,5.268
			c13.988,1.654,27.996,3.139,41.988,4.773c18.217,2.133,36.422,4.379,54.641,6.496c7.918,0.924,15.859,1.67,23.793,2.459
			c1.471,0.146,3.064-0.176,4.258,0.947c0.641,0.605,1.414,1.42,1.486,2.199c0.107,1.199-1.115,1.17-2.025,1.316
			c-18.475,2.98-36.947,5.979-55.422,8.959c-22.133,3.572-44.262,7.162-66.404,10.686c-22.506,3.582-45.027,7.059-67.535,10.641
			c-18.482,2.941-36.947,5.98-55.426,8.945c-1.387,0.225-2.451,0.678-3.076,2.029c-4.453,9.625,1.074,21.596,11.137,25.953
			c13.205,5.721,27.273,6.84,41.182,8.861c15.037,2.186,30.133,3.949,45.189,5.992c15.236,2.066,30.447,4.301,45.684,6.369
			c20.014,2.719,40.107,4.932,60.02,8.238c7.018,1.166,13.709,4.672,20.352,7.563c3.936,1.711,3.355,5.734,3.43,9.303
			c0.07,3.303-2.242,3.887-4.582,4.652c-64.906,21.234-129.809,42.488-194.719,63.705c-17.859,5.84-35.748,11.578-53.623,17.363
			c-1.061-1.463-2.119-2.926-3.18-4.389c1.543-2.164,4.035-2.594,6.307-3.326c74.209-23.936,148.287-48.279,222.57-71.984
			c1.955-0.623,3.934-1.193,5.836-1.959c1.99-0.801,5.082-0.895,5.102-3.576c0.025-2.979-3.201-3.189-5.369-4.037
			c-3.842-1.5-7.861-2.4-11.938-2.926c-46.604-5.998-93.156-12.396-139.766-18.369c-13.688-1.75-27.457-3.115-41.002-5.654
			c-12.939-2.428-25.123-6.928-33.064-18.713c-1.914-2.838-2.924-5.602-2.207-8.887c1.551-7.109,3.43-14.143,5.225-21.191
			c1.184-4.639,4.732-5.848,8.813-6.438c18.828-2.727,37.686-5.254,56.529-7.859c34.176-4.73,68.359-9.418,102.529-14.184
			c8.078-1.129,16.207-1.916,25.387-3.736c-3.744-2.127-6.889-2.104-9.832-2.484c-54.555-7.09-109.133-13.988-163.68-21.141
			c-23.852-3.127-47.73-6.039-71.57-9.246c-6.842-0.922-8.59-4.117-4.436-9.662c5.258-7.021,11.705-13.053,18.453-18.646
			c2.939-2.438,6.98-2.385,10.686-2.787c33.916-3.67,67.84-7.262,101.756-10.893c29.281-3.137,58.564-6.27,87.859-9.305
			c3.061-0.318,7.703,0.182,7.879-3.533c0.201-4.299-4.674-4.01-7.818-4.406c-61.979-7.795-123.99-15.313-185.93-23.418
			c-12.201-1.596-24.422-3.053-36.637-4.557c-3.91-0.484-6.479-2.258-8.416-5.586c-3.664-6.287-7.5-12.471-11.186-18.744
			c-4.514-7.686-3.717-9.428,5.012-10.912c56.094-9.531,112.191-19.021,168.303-28.459c18.578-3.125,37.154-6.273,55.73-9.426
			c2.002-0.338,3.994-0.822,6.41-0.459c-44.869-20.496-89.338-41.037-133.961-61.24c-12.283-5.563-23.473-13.029-34.805-20.232
			c-1.502-0.953-3.725-1.949-3.299-4.047c0.426-2.117,2.883-2.143,4.631-2.408c12.885-1.969,25.727-4.217,38.025-5.768
			c-16.393-3.01-33.213-7.014-50.148-10.459c-16.998-3.459-33.822-7.988-50.955-10.523c-12.998-1.922-22.189-8.449-30.283-18.016
			c-10.594-12.523-22.086-24.255-33.215-36.302c-17.455-18.896-34.912-37.791-52.371-56.68c-9.869-10.68-19.867-21.24-29.574-32.07
			c-0.867-0.971-1.828-1.865-2.609-2.916c-2.004-2.697-1.813-4.789,1.654-5.994c1.41-0.49,2.857-0.854,4.305-1.219
			c42.699-10.73,85.369-21.584,128.061-32.348c26.23-6.612,52.457-13.239,78.67-19.915c1.746-0.446,3.771-0.409,5.234-2.65
			c-6.229-5.732-12.5-11.497-19.443-16.482c-2.258-1.618-4.91-1.494-7.561-1.157c-30.15,3.853-60.32,7.553-90.459,11.507
			c-2.877,0.376-6.986,1.594-8.049-1.546c-0.92-2.718,3.141-4.181,5.418-5.585c12.697-7.82,24.5-17.078,37.943-23.676
			c0.781-0.781,1.801-1.153,3.328-1.773c-1.813,0.495-2.871,1.202-3.887,1.996c-16.162,7.633-33.104,13.312-49.695,19.859
			c-7.777,3.07-15.564,6.134-23.361,9.158c-4.344,1.684-8.164,1.609-12.318-0.278c-3.557-1.616-7.08-3.289-10.584-5.004
			c-4.74-2.321-5.057-3.887-0.729-6.981c9.672-6.917,19.32-13.886,29.441-20.153c1.262-0.781,2.586-1.459,3.877-2.183
			c0.967-0.534,1.91-1.111,3.041-1.806c-1.307,0.66-2.359,1.336-3.471,1.909c-13.072,6.84-27.215,11.411-40.201,18.277
			c-14.922,7.895-30.432,10.431-46.963,9.204c-5.375-0.4-10.809-0.264-16.174,0.776c-1.627,0.315-3.596,0.341-4.563-1.318
			c-0.979-1.682,0.18-3.243,1.197-4.568c4.445-5.801,9.486-10.845,15.793-14.815c44.678-28.118,89.379-56.208,133.578-85.068
			c23.08-15.072,47.842-26.677,72.594-38.446c13.307-6.327,26.391-13.119,39.814-19.206c3.197-1.451,6.287-3.144,8.428-3.651
			c-10.646,3.515-22.912,6.219-34.996,9.581c-1.605,0.446-3.666,1.194-4.607-0.523c-1.016-1.85,0.984-2.985,2.236-3.971
			c9.959-7.851,19.947-15.664,29.271-22.08c-12.539,5.594-25.764,12.939-39.51,19.157c-15.137,6.846-29.889,14.46-44.836,21.67
			c-32.424,15.642-64.791,31.411-97.184,47.116c-18.289,8.868-36.348,18.227-54.934,26.489c-1.826,0.812-3.902,2.486-5.717,1.007
			c-2.031-1.654-0.672-4.116-0.299-6.294c1.994-11.63,7.855-20.1,17.895-26.899c20.219-13.69,39.16-29.214,59.408-42.814
			c0.316-0.188,0.555-0.37,0.662-0.512c-0.234,0.115-0.512,0.289-0.867,0.549c-37.346,24.739-75.93,47.414-113.887,71.092
			c-26.732,16.679-53.527,33.259-80.404,49.706c-0.796,0.487-1.544,1.052-2.364,1.496c-1.304,0.704-2.74,1.821-4.148,0.927
			c-1.791-1.137-0.949-3.088-0.505-4.599c3.947-13.412,7.899-26.823,12.051-40.173c1.002-3.215,3.322-5.299,5.999-7.127
			c23.706-16.2,47.329-32.518,70.983-48.793c52.529-36.144,105.082-72.258,157.633-108.373
			c32.115-22.069,64.223-44.154,96.357-66.19c24.758-16.977,49.514-33.953,74.193-51.042c5.824-4.032,10.682-9.284,15.914-14.033
			c19.035-17.273,38.092-34.519,57.199-51.713c6.783-6.108,13.41-12.382,20.564-18.057c0.441-0.282,0.861-0.617,1.414-0.673
			c-0.775-0.216-1.141,0.522-1.742,0.752c-21.41,15.312-43.83,29.069-65.766,43.556c-20.697,13.668-41.582,27.053-62.324,40.656
			c-43.197,28.333-86.377,56.7-129.746,84.77c-31.967,20.69-62.691,43.112-93.773,65.037
			c-40.232,28.376-80.377,56.881-120.475,85.443c-22.177,15.796-44.493,31.395-66.65,47.221
			C752.434,621.768,750.085,624.965,745.972,624.152z"/>
		<path style="fill:#FBE8E5;" d="M986.184,524.508c0.447,0.391,0.896,0.781,1.346,1.172c-12.043,7.964-24.563,15.142-37.072,22.327
			c-1.219,0.562-1.355-0.085-1.199-1.066C961.566,539.463,973.873,531.984,986.184,524.508z"/>
		<path style="fill:#DF4800;" d="M1243.609,657.607c-0.373-0.376-0.744-0.755-1.115-1.131c5.025-1.627,10.205-1.97,15.525-1.474
			C1253.219,655.871,1248.414,656.739,1243.609,657.607z"/>
		<path style="fill:#F7CBC4;" d="M949.258,546.941c0.4,0.355,0.799,0.711,1.199,1.066c-2.299,1.409-4.596,2.819-6.893,4.227
			c-0.541-0.164-0.934-0.499-1.186-1.003C944.67,549.8,946.965,548.37,949.258,546.941z"/>
		<path style="fill:#F7CAC3;" d="M939.25,554.706c-2.285,1.42-4.572,2.84-6.859,4.261c-0.529-0.158-0.908-0.494-1.15-0.986
			c2.283-1.409,4.564-2.821,6.848-4.231C938.619,553.892,939.01,554.211,939.25,554.706z"/>
		<path style="fill:#F5BAB0;" d="M911.336,571.557c0.549-3.617,3.869-3.646,6.285-4.842c-1.107,2.937-4.059,3.412-6.365,4.752
			L911.336,571.557z"/>
		<path style="fill:#F6C8C1;" d="M928.09,561.425c-2.16,1.349-4.32,2.695-6.482,4.042c0.773-2.562,2.506-3.601,4.531-4.234
			C926.834,560.859,927.482,560.924,928.09,561.425z"/>
		<path style="fill:#FBE5E2;" d="M939.25,554.706c-0.387-0.319-0.773-0.637-1.162-0.957c1.432-0.84,2.861-1.68,4.291-2.519
			c0.395,0.334,0.789,0.669,1.186,1.003C942.127,553.059,940.689,553.883,939.25,554.706z"/>
		<path style="fill:#F5B9AF;" d="M901.348,577.413c-1.563,1.476-3.313,2.578-6.775,3.533c2.436-2.542,4.148-3.581,6.154-4.2
			C901.305,576.624,901.512,576.846,901.348,577.413z"/>
		<path style="fill:#F8D4CD;" d="M928.09,561.425c-0.648-0.063-1.299-0.127-1.951-0.192c1.701-1.083,3.4-2.167,5.102-3.252
			c0.383,0.328,0.768,0.658,1.15,0.986C930.957,559.787,929.525,560.607,928.09,561.425z"/>
		<path style="fill:#F6C0B7;" d="M900.727,576.746c1.572-1.609,3.482-2.674,5.57-3.449c0.543-0.042,0.785,0.191,0.686,0.741
			c-1.623,1.551-3.533,2.625-5.635,3.375C901.174,577.161,900.965,576.938,900.727,576.746z"/>
		<path style="fill:#F7CBC4;" d="M958.719,576.896c0.617,0.083,1.23,0.164,1.846,0.245c-1.387,1.485-3.07,2.215-5.25,2.325
			C955.791,577.323,957.574,577.577,958.719,576.896z"/>
		<path style="fill:#F5C0B7;" d="M906.297,573.296c1.369-1.474,2.898-2.481,5.037-1.74c0.002,0-0.082-0.092-0.08-0.092
			c-1.17,1.278-2.615,2.104-4.271,2.573C906.758,573.787,906.529,573.54,906.297,573.296z"/>
		<path style="fill:#DFDF00;" d="M986.066,539.979c-22.592,16.739-45.137,33.54-67.832,50.141c-3.063,2.242-4.98,4.763-5.93,8.354
			c-1.465,5.528-3.16,10.995-5.223,18.088c83.643-40.521,165.932-80.383,248.221-120.249c0.229,0.367,0.457,0.735,0.686,1.102
			c-12.443,9.46-24.883,18.92-37.326,28.38c0.141,0.273,0.281,0.546,0.42,0.82c14.289-3.757,28.578-7.512,42.863-11.269
			c0.139,0.339,0.273,0.678,0.412,1.017c-6.223,3.071-12.418,6.199-18.672,9.206c-23.68,11.379-47.391,22.688-71.063,34.085
			c-20.051,9.653-37.945,22.881-56.715,34.632c-38.365,24.02-76.381,48.603-114.629,72.812c-6.191,3.918-9.76,9.875-14.055,15.741
			c7.373-0.529,14.582-1.072,21.67-0.396c17.336,1.653,32.951-3.044,48.271-10.683c12.307-6.138,25.234-11.036,37.887-16.484
			c1.141-0.337,1.416,0.129,1.078,1.166c-12.217,8.397-24.432,16.797-37.516,25.793c6.941,3.155,12.951,5.891,18.963,8.62
			c2.164,0.984,3.963-0.258,5.842-0.979c25.146-9.664,50.291-19.325,75.438-28.986c0.535-0.427,1.029-0.384,1.482,0.135
			c-13.189,8.733-26.383,17.465-39.568,26.2c-1.533,1.016-3.049,2.055-5.309,3.579c6.104,1.188,11.268-0.481,16.369-1.069
			c23.07-2.659,46.094-5.729,69.133-8.646c3.32-0.42,6.828-0.267,9.928-1.318c7.258-2.463,12.438,0.354,17.439,5.255
			c4.117,4.028,8.775,7.494,13.123,11.293c1.182,1.033,3.355,1.788,2.863,3.664c-0.422,1.594-2.537,1.189-3.939,1.544
			c-55.711,14.1-111.432,28.182-167.145,42.287c-15.686,3.971-31.324,8.135-47.055,11.923c-4.117,0.992-3.939,1.915-1.35,4.689
			c11.691,12.537,23.178,25.264,34.824,37.846c29.631,31.998,59.443,63.834,88.846,96.044c5.158,5.65,11.076,8.123,18.137,9.578
			c36.227,7.459,72.42,15.078,108.617,22.67c0.852,0.178,1.637,0.684,3.492,1.488c-16.795,2.582-32.461,4.99-49.482,7.607
			c8.381,5.215,15.775,10,23.342,14.494c17.838,10.592,37.244,17.949,55.963,26.709c31.713,14.842,63.662,29.178,97.078,44.445
			c-6.674,1.271-11.895,2.369-17.148,3.248c-38.85,6.502-77.715,12.906-116.559,19.447c-34.811,5.861-69.594,11.881-104.404,17.742
			c-2.822,0.475-3.697,1.377-2.174,3.961c5.027,8.502,9.822,17.15,15.156,25.453c2.424,3.779,7.254,2.344,10.877,2.826
			c38.309,5.094,76.66,9.883,115.014,14.65c31.35,3.896,62.715,7.639,94.07,11.482c4.053,0.498,8.064,1.395,12.129,1.73
			c3.717,0.307,6.58,2.32,6.643,5.563c0.07,3.463-3.877,4.236-6.684,4.613c-7.918,1.061-15.898,1.65-23.846,2.504
			c-19.957,2.141-39.902,4.369-59.861,6.477c-19.041,2.014-38.098,3.859-57.137,5.896c-19.77,2.111-39.525,4.363-59.287,6.564
			c-0.924,0.102-2.178-0.063-2.703,0.467c-7.051,7.111-15.24,13.193-20.361,22.057c-1.359,2.357-1.143,4.016,2.307,4.438
			c26.926,3.297,53.844,6.678,80.746,10.154c27.639,3.572,55.254,7.334,82.891,10.918c26.904,3.486,53.824,6.855,80.736,10.268
			c0.553,0.07,1.115,0.068,1.676,0.098c1.957,0.092,3.389,1.332,3.596,2.99c0.324,2.605-2.416,1.986-3.607,2.166
			c-11.758,1.768-23.563,3.225-35.342,4.859c-25.766,3.57-51.518,7.215-77.281,10.779c-22.822,3.158-45.641,6.365-68.496,9.275
			c-5.492,0.699-9.207,2.117-10.117,8.434c-0.871,6.043-2.793,11.943-4.375,17.871c-0.846,3.16,0.07,5.428,2.006,8.137
			c9.959,13.928,24.883,17.182,40.322,19.313c24.477,3.375,48.98,6.578,73.479,9.791c21.188,2.779,42.438,5.148,63.566,8.314
			c16.139,2.416,32.641,2.664,48.361,7.711c1.063,0.342,2.113,0.719,3.172,1.082c2.082,0.715,3.676,1.947,3.791,4.305
			c0.125,2.648-1.873,3.256-3.93,3.918c-15.951,5.133-31.885,10.326-47.822,15.498c-26.742,8.678-53.477,17.367-80.227,26.025
			c-35.604,11.523-71.213,23.02-106.826,34.514c-1.229,0.396-2.518,0.615-3.777,0.918c-20.678-31.867-41.387-63.719-62.027-95.609
			C941.73,1110.595,811.3,909.017,680.721,707.536c-2.957-4.561-2.742-7.16,0.864-11.149c21.636-23.929,42.968-48.13,64.394-72.237
			c14.35-9.967,28.783-19.832,43.047-29.931c36.162-25.594,72.23-51.315,108.369-76.942c37.049-26.274,73.502-53.449,111.332-78.547
			c89.678-59.502,180.014-118.012,270.094-176.905c4.984-3.259,10.076-6.354,15.117-9.528c1.182-0.439,1.391,0.103,1.129,1.122
			c-22.211,20.168-44.75,39.991-66.537,60.607c-19.865,18.795-42.023,34.402-64.484,49.773
			c-80.416,55.035-160.705,110.258-241.02,165.441c-40.234,27.646-80.4,55.387-120.667,82.989c-3.077,2.11-5.22,4.438-6.273,8.098
			c-4.013,13.926-8.236,27.792-12.795,43.067c7.052-4.303,13.101-7.956,19.114-11.671c60.225-37.23,120.441-74.471,180.664-111.701
			c0.633-0.392,1.318-0.693,1.979-1.038C986.213,538.469,986.342,539.017,986.066,539.979z"/>
		<path style="fill:#FEFEFE;" d="M337.988,676.888c-4.772,0.57-9.532,1.287-14.319,1.636c-1.981,0.146-4.311,1.64-6.033-0.755
			c2.202-3.021,4.402-6.043,6.604-9.064c7.387-3.172,12.027-9.787,18.172-14.515c13.93-6.921,28.12-13.265,42.502-19.178
			c2.553,1.824,3.186,4.944,4.931,7.322c3.016,4.11,4.603,9.394,9.893,11.611c0.827,0.346,1.188,1.384,0.895,2.414
			c-18.166,6.274-36.319,12.589-54.516,18.78C343.51,676.026,340.701,676.321,337.988,676.888z"/>
		<path style="fill:#FDFDFD;" d="M477.985,595.073c-11.826,11.722-23.42,23.685-36.081,34.536c-1.826,0.011-1.999-1.465-2.225-2.686
			c-0.717-3.86-1.406-7.673-3.934-10.921c-1.159-1.487-0.944-3.164,0.68-4.426c13.373-5.975,26.746-11.949,40.119-17.923
			C477.896,593.243,478.21,593.884,477.985,595.073z"/>
		<path style="fill:#C9586F;" d="M400.663,627.56c6.132-3.468,12.631-6.14,19.143-8.782c1.043,0.339,2.211,0.285,3.097,1.116
			c3.167,2.978,3.584,10.26,0.813,14.6c-3.667,5.737-10.275,8.146-15.915,5.8C402.601,638.129,399.527,632.647,400.663,627.56z"/>
		<path style="fill:#DFA0AD;" d="M393.952,630.759c0.77-0.363,1.537-0.728,2.306-1.091c2.922-0.026,3.19,2.657,4.305,4.365
			c4.583,7.024,11.153,9.457,17.42,6.304c6.502-3.269,9.298-10.566,6.945-17.936c-0.543-1.699-1.827-3.313-0.893-5.278
			c1.174-0.553,2.35-1.107,3.524-1.661c8.988,12.725,1.948,30.075-13.345,31.96c-7.327,0.903-13.36-2.458-17.404-8.87
			C395.696,636.019,394.354,633.562,393.952,630.759z"/>
		<path style="fill:#EBC5CC;" d="M397.307,637.488c11.126,15.059,27.049,8.039,31.409-2.463c1.843-4.445,1.434-9.07,0.295-13.649
			c-0.488-1.97-0.969-3.942-1.452-5.913c0.667-0.243,1.336-0.488,2.005-0.732c2.263,0.888,3.036,2.866,3.647,4.968
			c3.538,10.934-0.573,19.154-9,26.029c-10.504,8.57-28.958,2.541-32.186-10.64c-0.228-0.927-0.155-1.848,0.284-2.715
			c1.802-1.57,2.668-0.007,3.09,1.23C395.881,635.009,396.451,636.301,397.307,637.488z"/>
		<path style="fill:#D58091;" d="M424.035,617.124c3.314,5.75,5.081,11.679,1.328,17.882c-2.81,4.646-6.626,7.907-12.466,8.104
			c-6.1,0.206-10.1-3.047-13.263-7.735c-1.234-1.829-2.258-3.799-3.377-5.706c1.468-0.704,2.937-1.406,4.404-2.108
			c0.71,5.568,3.2,10.062,8.725,11.817c4.951,1.575,9.047-0.49,12.29-4.438c4.079-4.965,3.315-11.886-1.868-16.162
			C421.216,618.227,422.625,617.675,424.035,617.124z"/>
		<path style="fill:#F0D6DB;" d="M392.747,632.041c2.239,10.49,12.972,18.38,22.424,16.484c12.035-2.414,19.68-13.604,17.178-25.071
			c-0.274-1.258-0.236-2.581-0.342-3.873c4.207,2.959,5.101,11.389,1.79,17.022c-0.745,1.266-1.715,2.353-2.868,3.271
			c-3.281,3.47-6.083,7.42-10.098,10.162c-2.263,0.61-4.525,1.22-6.789,1.83c-13.056-0.021-23.004-7.645-24.667-18.902
			c0.53-0.844,1.364-1.067,2.284-1.106C392.106,631.417,392.469,631.479,392.747,632.041z"/>
		<path style="fill:#FAF4F5;" d="M400.633,656.358c-8.581-4.654-12.313-12.88-15.719-21.347c0.455-0.896,1.294-0.935,2.139-0.968
			c2.465-0.745,2.674,1.366,3.284,2.737c2.977,6.687,7.641,11.57,14.592,14.155c1.394,0.519,2.747,1.254,2.417,3.173
			C405.108,654.858,402.872,655.608,400.633,656.358z"/>
		<path style="fill:#F9F2F3;" d="M436.426,611.577c-0.096,0.89-0.614,2.244-0.225,2.598c4.615,4.181,3.83,10.294,5.704,15.435
			c-0.87,2.884-3.709,3.774-5.647,5.579c-1.201-0.012-1.736-0.894-1.505-1.791c1.505-5.824-0.041-11.229-1.992-16.623
			c-0.443-1.221-0.554-2.522,0.388-3.653C434.241,612.607,435.333,612.091,436.426,611.577z"/>
		<path style="fill:#F6E7EA;" d="M407.346,654.108c-1.21-2.961-4.494-1.983-6.635-3.473c-5.31-3.693-9.586-7.915-11.396-14.277
			c-0.329-1.155-1.221-1.823-2.263-2.315c0.521-0.906,1.391-1.061,2.323-1.079c4.554,11.089,13.045,17.037,24.667,18.902
			C411.812,652.613,409.579,653.36,407.346,654.108z"/>
		<path style="fill:#F3E0E4;" d="M433.149,613.121c2.586,7.138,3.45,14.516,3.109,22.067c-1.081,2.353-2.744,4.043-5.328,4.686
			c3.151-6.617,5.441-13.278,1.078-20.293c-0.814-1.616-1.63-3.233-2.443-4.85C430.758,614.195,431.953,613.657,433.149,613.121z"/>
		<path style="fill:#EAEAEA;" d="M342.412,654.189c-4.993,6.171-9.2,13.326-18.172,14.515c0.757-1.116,1.514-2.234,2.272-3.351
			c3.418-2.955,6.36-6.473,10.353-8.75C338.59,655.514,340.306,654.405,342.412,654.189z"/>
		<path style="fill:#C4C4C4;" d="M336.864,656.603c-2.988,3.464-5.657,7.304-10.353,8.75
			C328.357,660.537,331.891,657.718,336.864,656.603z"/>
		<path style="fill:#E4B5BF;" d="M392.747,632.041c-0.367-0.026-0.73-0.085-1.087-0.184c0.54-0.835,1.362-1.078,2.292-1.098
			c2.703,1.455,2.579,4.316,3.354,6.731C394.453,636.789,395.764,632.605,392.747,632.041z"/>
		<path style="fill:#D0D0D0;" d="M477.985,595.073c-0.481-0.475-0.96-0.947-1.441-1.419c1.133-1.22,2.583-1.699,5.393-2.059
			C480.113,593.199,479.048,594.135,477.985,595.073z"/>
		<path style="fill:#DFBA00;" d="M1295.066,253.418c-0.377-0.374-0.752-0.746-1.129-1.12c1.426-1.247,2.773-2.628,5.383-3.086
			C1298.088,251.311,1296.832,252.602,1295.066,253.418z"/>
		<path style="fill:#DFA400;" d="M996.131,656.443c-0.361-0.389-0.721-0.776-1.076-1.164c1.289-1.358,2.848-1.985,6.064-2.18
			C998.701,654.718,997.416,655.582,996.131,656.443z"/>
		<path style="fill:#DFBB00;" d="M986.066,539.979c-0.338-0.332-0.68-0.664-1.02-0.996c0.883-1.311,2.221-1.72,3.836-2.25
			C988.715,538.885,987.336,539.38,986.066,539.979z"/>
		<path style="fill:#DFA500;" d="M1060.34,661.026c-0.494-0.045-0.988-0.089-1.482-0.133c1.195-1.235,2.623-1.948,4.434-1.996
			C1063.07,660.766,1061.613,660.769,1060.34,661.026z"/>
	</g>
</g>
</svg>
